<?xml version="1.0" encoding="utf-8"?>
<!-- Generator: Adobe Illustrator 21.1.0, SVG Export Plug-In . SVG Version: 6.00 Build 0)  -->
<svg version="1.1" id="Capa_1" xmlns="http://www.w3.org/2000/svg" xmlns:xlink="http://www.w3.org/1999/xlink" x="0px" y="0px"
	 viewBox="0 0 256 256" style="enable-background:new 0 0 256 256;" xml:space="preserve">
<style type="text/css">
	.st0{fill:#4176FA;}
	.st1{fill:#FFFFFF;}
</style>
<rect class="st0" width="256" height="256"/>
<g>
	<path class="st1" d="M164.7,107.3c-30.9,0-31,30.8-31,31c0,0-2.1,30.8,31,30.8c0,0,27.6,1.6,27.6-21.5h-14.2c0,0,0.5,8.7-13,8.7
		c0,0-14.2,0.9-14.2-14h41.8C192.8,142.4,197.4,107.3,164.7,107.3z M150.9,131.6c0,0,1.7-12.4,14.2-12.4c12.5,0,12.3,12.4,12.3,12.4
		H150.9z M115.5,123.6c0,0,12.3-0.9,12.3-15.3c0-14.4-10-21.5-22.8-21.5H63v80.6h41.9c0,0,25.6,0.8,25.6-23.8
		C130.6,143.6,131.7,123.6,115.5,123.6z M81.5,101.1H105c0,0,5.7,0,5.7,8.4s-3.3,9.6-7.1,9.6h-22V101.1z M103.8,153.1H81.5v-21.6
		H105c0,0,8.5-0.1,8.5,11.1C113.4,152.1,107.1,153.1,103.8,153.1z M147.4,91.6v9.9h33.3v-9.9H147.4z"/>
</g>
</svg>
