<?xml version="1.0" encoding="utf-8"?>
<!-- Generator: Adobe Illustrator 21.1.0, SVG Export Plug-In . SVG Version: 6.00 Build 0)  -->
<svg version="1.1" id="Layer_1" xmlns="http://www.w3.org/2000/svg" xmlns:xlink="http://www.w3.org/1999/xlink" x="0px" y="0px"
	 viewBox="0 0 256 256" style="enable-background:new 0 0 256 256;" xml:space="preserve">
<style type="text/css">
	.st0{fill:url(#SVGID_1_);}
	.st1{fill:url(#SVGID_2_);}
	.st2{fill:#FFFFFF;}
</style>
<radialGradient id="SVGID_1_" cx="-2.2443" cy="256.4184" r="398.0783" gradientUnits="userSpaceOnUse">
	<stop  offset="9.000000e-02" style="stop-color:#FA8F21"/>
	<stop  offset="0.8135" style="stop-color:#D82D7E"/>
</radialGradient>
<rect class="st0" width="256" height="256"/>
<radialGradient id="SVGID_2_" cx="266.1563" cy="261.2874" r="368.2539" gradientUnits="userSpaceOnUse">
	<stop  offset="0.64" style="stop-color:#8C3AAA;stop-opacity:0"/>
	<stop  offset="1" style="stop-color:#8C3AAA"/>
</radialGradient>
<rect class="st1" width="256" height="256"/>
<path class="st2" d="M103,128c0-13.8,11.2-25,25-25c13.8,0,25,11.2,25,25s-11.2,25-25,25S103,141.8,103,128 M89.5,128
	c0,21.3,17.2,38.5,38.5,38.5s38.5-17.2,38.5-38.5S149.3,89.5,128,89.5S89.5,106.7,89.5,128 M159,88c0,5,4,9,9,9c5,0,9-4,9-9
	c0-5-4-9-9-9l0,0C163.1,79,159,83,159,88 M97.7,189c-7.3-0.3-11.3-1.6-13.9-2.6c-3.5-1.4-6-3-8.6-5.6c-2.6-2.6-4.3-5.1-5.6-8.6
	c-1-2.6-2.2-6.6-2.6-13.9c-0.4-7.9-0.4-10.3-0.4-30.3s0.1-22.4,0.4-30.3c0.3-7.3,1.6-11.3,2.6-13.9c1.4-3.5,3-6,5.6-8.6
	c2.6-2.6,5.1-4.3,8.6-5.6c2.6-1,6.6-2.2,13.9-2.6c7.9-0.4,10.3-0.4,30.3-0.4s22.4,0.1,30.3,0.4c7.3,0.3,11.3,1.6,13.9,2.6
	c3.5,1.4,6,3,8.6,5.6c2.6,2.6,4.2,5.1,5.6,8.6c1,2.6,2.2,6.6,2.6,13.9c0.4,7.9,0.4,10.3,0.4,30.3s-0.1,22.4-0.4,30.3
	c-0.3,7.3-1.6,11.3-2.6,13.9c-1.4,3.5-3,6-5.6,8.6c-2.6,2.6-5.1,4.2-8.6,5.6c-2.6,1-6.6,2.2-13.9,2.6c-7.9,0.4-10.3,0.4-30.3,0.4
	S105.6,189.4,97.7,189 M97.1,53.4c-8,0.4-13.4,1.6-18.2,3.5c-4.9,1.9-9.1,4.5-13.3,8.7c-4.2,4.2-6.7,8.4-8.7,13.3
	c-1.9,4.8-3.1,10.2-3.5,18.2c-0.4,8-0.5,10.6-0.5,30.9s0.1,22.9,0.5,30.9c0.4,8,1.6,13.4,3.5,18.2c1.9,4.9,4.5,9.1,8.7,13.3
	c4.2,4.2,8.4,6.7,13.3,8.7c4.8,1.9,10.2,3.1,18.2,3.5c8,0.4,10.6,0.5,30.9,0.5s22.9-0.1,30.9-0.5c8-0.4,13.4-1.6,18.2-3.5
	c4.9-1.9,9.1-4.5,13.3-8.7c4.2-4.2,6.7-8.4,8.7-13.3c1.9-4.8,3.1-10.2,3.5-18.2c0.4-8,0.4-10.6,0.4-30.9s-0.1-22.9-0.4-30.9
	c-0.4-8-1.6-13.4-3.5-18.2c-1.9-4.9-4.5-9.1-8.7-13.3c-4.2-4.2-8.4-6.7-13.3-8.7c-4.8-1.9-10.2-3.1-18.2-3.5
	c-8-0.4-10.6-0.5-30.9-0.5S105.1,53.1,97.1,53.4"/>
</svg>
