<?xml version="1.0" encoding="utf-8"?>
<!-- Generator: Adobe Illustrator 21.1.0, SVG Export Plug-In . SVG Version: 6.00 Build 0)  -->
<svg version="1.1" id="Layer_1" xmlns="http://www.w3.org/2000/svg" xmlns:xlink="http://www.w3.org/1999/xlink" x="0px" y="0px"
	 viewBox="0 0 3365 3365" style="enable-background:new 0 0 3365 3365;" xml:space="preserve">
<style type="text/css">
	.st0{fill:none;}
	.st1{fill:url(#SVGID_1_);}
	.st2{fill:url(#SVGID_2_);}
	.st3{fill:#FFFFFF;}
</style>
<g>
	<polygon class="st0" points="1682.5,3365 1682.5,3365 1682.5,3365 	"/>
	<polygon class="st0" points="0,1682.5 0,1682.5 0,1682.5 	"/>
	<polygon class="st0" points="1682.5,0 1682.5,0 1682.5,0 	"/>
	
		<radialGradient id="SVGID_1_" cx="217.9086" cy="74.8614" r="4271.9199" gradientTransform="matrix(1.0001 0 0 -1.0001 -0.1486 3366.1516)" gradientUnits="userSpaceOnUse">
		<stop  offset="9.000000e-02" style="stop-color:#FA8F21"/>
		<stop  offset="0.78" style="stop-color:#D82D7E"/>
	</radialGradient>
	<path class="st1" d="M3365,1682.5C3365,753.3,2611.7,0,1682.5,0c0,0,0,0,0,0C753.3,0,0,753.3,0,1682.5c0,0,0,0,0,0
		C0,2611.7,753.3,3365,1682.5,3365c0,0,0,0,0,0C2611.7,3365,3365,2611.7,3365,1682.5z"/>
</g>
<g>
	<polygon class="st0" points="1682.5,3365 1682.5,3365 1682.5,3365 	"/>
	<polygon class="st0" points="0,1682.5 0,1682.5 0,1682.5 	"/>
	<polygon class="st0" points="1682.5,0 1682.5,0 1682.5,0 	"/>
	
		<radialGradient id="SVGID_2_" cx="2330.7588" cy="182.9014" r="3759.3301" gradientTransform="matrix(1.0001 0 0 -1.0001 -0.1486 3366.1516)" gradientUnits="userSpaceOnUse">
		<stop  offset="0.64" style="stop-color:#8C3AAA;stop-opacity:0"/>
		<stop  offset="1" style="stop-color:#8C3AAA"/>
	</radialGradient>
	<path class="st2" d="M3365,1682.5C3365,753.3,2611.7,0,1682.5,0c0,0,0,0,0,0C753.3,0,0,753.3,0,1682.5c0,0,0,0,0,0
		C0,2611.7,753.3,3365,1682.5,3365c0,0,0,0,0,0C2611.7,3365,3365,2611.7,3365,1682.5z"/>
</g>
<path class="st3" d="M1404.4,1689.7c0-155.6,126.1-281.7,281.6-281.7s281.7,126.1,281.7,281.7s-126.1,281.7-281.7,281.7
	S1404.4,1845.2,1404.4,1689.7 M1252.1,1689.7c0,239.7,194.3,433.9,433.9,433.9s433.9-194.3,433.9-433.9s-194.3-433.9-433.9-433.9
	S1252.1,1450,1252.1,1689.7 M2035.7,1238.6c0,56,45.4,101.4,101.4,101.4c56,0,101.4-45.4,101.4-101.4c0-56-45.4-101.4-101.4-101.4h0
	C2081.1,1137.2,2035.7,1182.6,2035.7,1238.6 M1344.6,2377.5c-82.4-3.8-127.2-17.5-156.9-29.1c-39.5-15.4-67.6-33.7-97.2-63.2
	c-29.6-29.6-47.9-57.7-63.2-97.1c-11.6-29.7-25.3-74.5-29.1-156.9c-4.1-89.1-4.9-115.8-4.9-341.5s0.9-252.3,4.9-341.5
	c3.8-82.4,17.6-127.1,29.1-156.9c15.4-39.5,33.7-67.6,63.2-97.2c29.6-29.6,57.7-47.9,97.2-63.2c29.7-11.6,74.5-25.3,156.9-29.1
	c89.1-4.1,115.8-4.9,341.4-4.9s252.3,0.9,341.5,4.9c82.4,3.8,127.1,17.6,156.9,29.1c39.5,15.3,67.6,33.7,97.2,63.2
	s47.8,57.7,63.2,97.2c11.6,29.7,25.3,74.5,29.1,156.9c4.1,89.1,4.9,115.8,4.9,341.5s-0.8,252.3-4.9,341.5
	c-3.8,82.4-17.5,127.2-29.1,156.9c-15.4,39.5-33.7,67.6-63.2,97.1s-57.7,47.8-97.2,63.2c-29.7,11.6-74.5,25.3-156.9,29.1
	c-89.1,4.1-115.8,4.9-341.5,4.9S1433.6,2381.6,1344.6,2377.5 M1337.6,849.8c-90,4.1-151.4,18.4-205.1,39.3
	c-55.6,21.6-102.7,50.5-149.7,97.5c-47,47-75.9,94.1-97.5,149.7c-20.9,53.7-35.2,115.2-39.3,205.1c-4.2,90.1-5.1,118.9-5.1,348.4
	s1,258.3,5.1,348.4c4.1,90,18.4,151.4,39.3,205.1c21.6,55.6,50.4,102.8,97.5,149.7c47,46.9,94.1,75.8,149.7,97.5
	c53.8,20.9,115.2,35.2,205.1,39.3c90.1,4.1,118.9,5.1,348.4,5.1s258.3-1,348.4-5.1c90-4.1,151.4-18.4,205.1-39.3
	c55.6-21.6,102.7-50.5,149.7-97.5c47-47,75.8-94.1,97.5-149.7c20.9-53.7,35.2-115.2,39.3-205.1c4.1-90.2,5-118.9,5-348.4
	s-1-258.3-5-348.4c-4.1-90-18.4-151.4-39.3-205.1c-21.6-55.6-50.5-102.7-97.5-149.7s-94.1-75.9-149.6-97.5
	c-53.8-20.9-115.2-35.2-205.1-39.3c-90.1-4.1-118.9-5.1-348.4-5.1S1427.8,845.6,1337.6,849.8"/>
</svg>
