<?xml version="1.0" encoding="utf-8"?>
<!-- Generator: Adobe Illustrator 21.1.0, SVG Export Plug-In . SVG Version: 6.00 Build 0)  -->
<svg version="1.1" id="Capa_1" xmlns="http://www.w3.org/2000/svg" xmlns:xlink="http://www.w3.org/1999/xlink" x="0px" y="0px"
	 viewBox="0 0 512 512" style="enable-background:new 0 0 512 512;" xml:space="preserve">
<style type="text/css">
	.st0{fill:#5C6BC0;}
	.st1{fill:#FFFFFF;}
</style>
<rect class="st0" width="512" height="512"/>
<path class="st1" d="M419.3,254.3c0-28.1-9.9-51-26.3-69c2.6-6.5,11.4-32.6-2.6-68c0,0-21.5-6.9-70.3,26.3
	c-20.4-5.7-42.4-8.5-64.1-8.7c-21.8,0.1-43.7,2.9-64.1,8.6c-48.9-33.2-70.4-26.3-70.4-26.3c-13.9,35.4-5.2,61.5-2.5,68
	c-16.4,18-26.4,40.9-26.4,69c0,98.5,59.8,120.5,116.6,127c-7.3,6.4-14,17.8-16.3,34.4c-14.6,6.6-51.7,17.9-74.5-21.3
	c0,0-13.5-24.7-39.2-26.5c0,0-25-0.3-1.7,15.6c0,0,16.8,7.9,28.4,37.6c0,0,15,50,86.2,34.5c0.1,21.4,0.4,37.6,0.4,43.7
	c0,5.9-3.5,12.6-12.6,12.8c0,0,0,0,0,0h153.4c0,0,0,0,0,0c-10.1,0.4-13.8-6.6-13.8-12.8c0-8.4,0.3-36.1,0.3-70.5
	c0-24-8.2-39.6-17.4-47.6C359.5,374.7,419.3,353,419.3,254.3z"/>
</svg>
