<?xml version="1.0" encoding="utf-8"?>
<!-- Generator: Adobe Illustrator 21.1.0, SVG Export Plug-In . SVG Version: 6.00 Build 0)  -->
<svg version="1.1" id="Capa_1" xmlns="http://www.w3.org/2000/svg" xmlns:xlink="http://www.w3.org/1999/xlink" x="0px" y="0px"
	 viewBox="0 0 256 256" style="enable-background:new 0 0 256 256;" xml:space="preserve">
<style type="text/css">
	.st0{fill:#007AB9;}
	.st1{fill:#FFFFFF;}
</style>
<rect class="st0" width="256" height="256"/>
<g>
	<path class="st1" d="M193,142v48.1h-27.9v-44.8c0-11.3-4-19-14.1-19c-7.7,0-12.3,5.2-14.3,10.2c-0.7,1.8-0.9,4.3-0.9,6.8v46.8
		h-27.9c0,0,0.4-76,0-83.8h27.9v11.9c-0.1,0.1-0.1,0.2-0.2,0.3h0.2v-0.3c3.7-5.7,10.3-13.8,25.1-13.8C179.3,104.3,193,116.3,193,142
		L193,142z M78.8,65.9c-9.5,0-15.8,6.3-15.8,14.5c0,8,6.1,14.5,15.4,14.5h0.2c9.7,0,15.8-6.4,15.8-14.5
		C94.2,72.1,88.3,65.9,78.8,65.9L78.8,65.9z M64.7,190.1h27.9v-83.8H64.7V190.1z"/>
</g>
</svg>
