<?xml version="1.0" encoding="utf-8"?>
<!-- Generator: Adobe Illustrator 21.1.0, SVG Export Plug-In . SVG Version: 6.00 Build 0)  -->
<svg version="1.1" id="Capa_1" xmlns="http://www.w3.org/2000/svg" xmlns:xlink="http://www.w3.org/1999/xlink" x="0px" y="0px"
	 viewBox="0 0 50 50" style="enable-background:new 0 0 50 50;" xml:space="preserve">
<style type="text/css">
	.st0{fill:#CB2027;}
	.st1{fill:#FFFFFF;}
</style>
<g>
	<rect class="st0" width="50" height="50"/>
	<g>
		<path class="st1" d="M27.8,32.2c-1.7-0.1-2.4-1-3.7-1.8c-0.7,3.8-1.6,7.4-4.2,9.4C19,34.1,21,29.7,22,25.2c-1.6-2.7,0.2-8,3.5-6.7
			c4.1,1.6-3.6,9.9,1.6,10.9c5.4,1.1,7.6-9.3,4.2-12.7c-4.8-4.9-14-0.1-12.9,6.9c0.3,1.7,2,2.2,0.7,4.6c-3.1-0.7-4-3.1-3.9-6.4
			c0.2-5.3,4.8-9,9.4-9.5c5.8-0.6,11.2,2.1,12,7.6C37.5,26,34,32.7,27.8,32.2L27.8,32.2z"/>
	</g>
</g>
</svg>
