<?xml version="1.0" encoding="utf-8"?>
<!-- Generator: Adobe Illustrator 21.1.0, SVG Export Plug-In . SVG Version: 6.00 Build 0)  -->
<svg version="1.1" id="Capa_1" xmlns="http://www.w3.org/2000/svg" xmlns:xlink="http://www.w3.org/1999/xlink" x="0px" y="0px"
	 viewBox="0 0 50 50" style="enable-background:new 0 0 50 50;" xml:space="preserve">
<style type="text/css">
	.st0{fill:#0E409A;}
	.st1{fill:#FFFFFF;}
</style>
<rect y="0" class="st0" width="50" height="50"/>
<g>
	<path class="st1" d="M19.6,8.4c1.9,0.3,3.7,0.8,5.5,1.4c1,0.3,2.1,0.6,3.1,1c1.6,0.5,3.3,1.1,4.7,2c0.7,0.4,1.3,0.9,1.8,1.4
		c0.6,0.6,1.1,1.3,1.4,2c0.6,1.3,0.9,2.8,0.9,4.3c0,1,0,1.9-0.2,2.9c-0.1,0.8-0.4,1.6-0.9,2.4c-0.4,0.6-0.9,1.2-1.6,1.5
		c-0.6,0.3-1.4,0.5-2.1,0.5c-1.1,0-2.1-0.3-3.1-0.8c0-3.2,0-6.5,0-9.7c0-0.6,0-1.2-0.1-1.8c-0.1-0.4-0.3-0.9-0.6-1.2
		c-0.2-0.2-0.5-0.3-0.8-0.4c-0.3-0.1-0.6,0.1-0.8,0.3c-0.3,0.4-0.4,0.9-0.4,1.4c0,8.7,0,17.4,0,26c-2.3-0.7-4.7-1.5-7-2.2
		C19.6,29,19.6,18.7,19.6,8.4L19.6,8.4z M9.1,30.4c3-1.1,6.1-2.2,9.1-3.2c0,1.2,0,2.4,0,3.6c0,0.2,0,0.3,0,0.5
		c-2.4,0.9-4.8,1.7-7.2,2.6c-0.3,0.1-0.7,0.3-0.9,0.5c-0.1,0.1-0.2,0.3-0.2,0.5c0.1,0.2,0.3,0.3,0.5,0.4c0.5,0.2,1.1,0.2,1.7,0.3
		c0.6,0,1.3-0.1,1.9-0.2c0.4-0.1,0.8-0.2,1.2-0.4c1-0.4,2.1-0.7,3.1-1.1c0,1,0,2,0,3c0,0.2,0,0.4,0,0.6c-1.3,0.2-2.5,0.4-3.8,0.4
		c-2.6,0.1-5.2-0.3-7.6-1.2c-0.8-0.2-1.6-0.5-2.3-1.1c-0.4-0.3-0.7-0.6-0.9-1.1c-0.1-0.4-0.1-0.8,0-1.2c0.2-0.4,0.5-0.6,0.8-0.9
		c0.8-0.5,1.6-0.9,2.4-1.3C7.6,30.9,8.3,30.6,9.1,30.4L9.1,30.4z"/>
	<path class="st1" d="M33.6,29c0.7-0.1,1.4-0.1,2.1-0.1c2.3,0,4.6,0.3,6.8,1c0.4,0.1,0.8,0.3,1.3,0.4c0.8,0.3,1.5,0.6,2.1,1.2
		c0.4,0.3,0.7,0.8,0.7,1.3c0,0.4-0.2,0.8-0.4,1.1c-0.5,0.6-1.2,1-1.9,1.3c-0.7,0.4-1.5,0.6-2.3,0.9c-4.7,1.7-9.3,3.3-14,5
		c0-1.3,0-2.6,0-3.9c0-0.1,0-0.1,0.1-0.2c3.5-1.3,7.1-2.5,10.6-3.8c0.5-0.2,1-0.3,1.4-0.6c0.2-0.1,0.3-0.3,0.2-0.6
		c-0.1-0.2-0.3-0.3-0.5-0.4c-0.5-0.2-1.1-0.3-1.7-0.3c-0.9,0-1.8,0.1-2.6,0.4c-2.5,0.9-5.1,1.8-7.6,2.7c0-1.4,0-2.8,0-4.2
		C29.7,29.6,31.6,29.2,33.6,29L33.6,29z"/>
</g>
</svg>
